<?xml version="1.0" standalone="no"?>
<!DOCTYPE svg PUBLIC "-//W3C//DTD SVG 20010904//EN"
 "http://www.w3.org/TR/2001/REC-SVG-20010904/DTD/svg10.dtd">
<svg version="1.0" xmlns="http://www.w3.org/2000/svg"
 width="1232.000000pt" height="1232.000000pt" viewBox="0 0 1232.000000 1232.000000"
 preserveAspectRatio="xMidYMid meet">
<metadata>
Created by potrace 1.11, written by Peter Selinger 2001-2013
</metadata>
<g transform="translate(0.000000,1232.000000) scale(0.100000,-0.100000)"
fill="#000000" stroke="none">
<path d="M5898 12315 c-1 -2 -46 -6 -99 -9 -53 -4 -107 -9 -120 -11 -13 -2
-46 -6 -74 -10 -108 -14 -121 -16 -145 -21 -14 -2 -38 -7 -55 -9 -36 -6 -117
-24 -165 -37 -19 -5 -48 -11 -65 -14 -16 -3 -55 -13 -85 -22 -30 -9 -57 -16
-60 -17 -45 -9 -226 -71 -232 -80 -4 -5 -8 -7 -8 -3 0 7 -69 -16 -125 -42 -11
-5 -63 -27 -116 -49 -218 -91 -512 -257 -732 -414 -48 -34 -219 -169 -244
-191 -6 -6 -35 -31 -64 -56 -96 -81 -337 -326 -409 -417 -8 -10 -34 -41 -56
-68 -66 -80 -174 -226 -174 -235 0 -5 -3 -10 -7 -12 -9 -3 -79 -107 -101 -148
-7 -14 -19 -32 -26 -40 -7 -8 -18 -26 -24 -40 -7 -14 -28 -52 -47 -85 -39 -66
-168 -324 -171 -340 -1 -5 -13 -35 -26 -65 -52 -116 -133 -340 -142 -393 -1
-7 -10 -39 -20 -72 -10 -33 -20 -67 -22 -75 -29 -118 -45 -191 -50 -220 -2
-19 -7 -42 -9 -50 -3 -8 -7 -33 -10 -55 -3 -22 -7 -53 -10 -70 -3 -16 -7 -46
-10 -66 -41 -267 -40 -826 2 -1059 4 -19 7 -42 8 -50 2 -30 24 -158 30 -180 2
-8 7 -31 10 -50 10 -62 66 -272 102 -384 l35 -108 -30 -97 c-53 -166 -104
-361 -118 -456 -9 -55 -11 -64 -14 -67 -1 -2 -3 -12 -4 -23 -4 -25 -16 -110
-21 -150 -37 -250 -41 -722 -10 -970 3 -22 7 -56 10 -75 7 -58 23 -152 35
-210 6 -30 13 -66 16 -80 7 -42 25 -124 30 -140 3 -8 5 -16 5 -17 0 -2 9 -33
20 -70 11 -38 22 -77 24 -87 7 -28 25 -88 35 -111 5 -11 14 -38 20 -60 6 -22
15 -49 20 -60 5 -11 23 -56 40 -100 59 -152 204 -457 221 -463 5 -2 9 -7 9
-12 0 -12 83 -154 92 -158 4 -2 8 -8 8 -13 0 -12 79 -131 94 -141 6 -4 8 -8 4
-8 -7 0 130 -189 156 -216 6 -6 22 -26 36 -44 66 -87 167 -195 365 -391 220
-217 1903 -1892 2345 -2334 l361 -360 35 37 c19 21 34 36 34 35 0 -6 835 834
838 843 2 6 10 10 17 10 7 0 15 4 17 10 3 10 1588 1598 1831 1833 123 120 225
230 289 310 9 12 40 51 68 87 28 36 58 73 65 82 7 9 18 25 24 36 6 11 17 26
23 34 19 20 88 127 87 135 0 3 6 10 15 15 9 5 16 14 16 20 0 6 11 26 26 45 14
18 22 33 18 33 -4 0 0 8 8 18 46 52 203 371 275 556 50 130 50 130 52 138 1 5
8 25 15 45 20 53 64 193 70 226 3 15 8 39 11 54 3 14 11 36 17 47 6 12 10 22
9 24 -1 1 3 26 8 55 6 28 13 63 16 77 3 14 8 39 11 55 4 17 8 37 9 45 1 8 5
35 9 60 8 45 9 55 21 140 33 228 38 638 11 895 -3 22 -7 63 -9 90 -3 28 -8 57
-11 65 -2 8 -7 38 -10 67 -3 28 -8 57 -10 65 -3 7 -7 31 -10 53 -2 22 -7 47
-10 55 -3 8 -8 26 -10 40 -14 70 -18 89 -32 140 -8 30 -16 62 -18 70 -2 8 -11
41 -21 72 -9 32 -16 60 -16 63 0 2 -8 25 -19 50 -11 25 -17 45 -13 45 3 0 1 6
-4 13 -10 13 -11 27 -2 42 12 20 84 267 109 375 23 99 65 335 76 425 21 183
27 287 27 485 0 172 -5 280 -18 400 -9 84 -17 155 -20 169 -1 9 -6 36 -9 61
-6 39 -27 148 -40 215 -10 49 -38 163 -46 190 -5 17 -21 68 -35 115 -33 111
-46 150 -58 180 -6 14 -11 27 -11 30 -4 19 -51 137 -58 144 -4 6 -8 18 -8 28
0 10 -5 18 -12 18 -6 0 -9 3 -5 6 3 4 0 19 -9 35 -8 16 -14 30 -13 31 2 5
-141 283 -176 343 -20 33 -38 68 -42 78 -3 9 -9 17 -14 17 -5 0 -9 4 -9 9 0 9
-141 224 -174 266 -9 11 -41 54 -72 95 -32 41 -60 77 -63 80 -3 3 -28 32 -56
65 -130 156 -329 351 -505 496 -36 30 -66 57 -68 62 -2 4 -8 7 -14 7 -6 0 -27
14 -47 30 -49 41 -49 42 -111 83 -30 20 -59 41 -65 45 -27 21 -244 153 -248
150 -3 -1 -13 4 -23 14 -26 22 -379 198 -399 198 -3 0 -24 9 -48 19 -43 19
-78 33 -87 35 -6 1 -124 44 -155 56 -26 10 -165 52 -179 54 -6 1 -17 5 -24 10
-7 4 -16 6 -19 3 -3 -3 -17 -1 -32 5 -24 10 -64 20 -131 33 -14 3 -36 8 -50
11 -14 4 -34 8 -45 10 -11 1 -58 10 -104 18 -47 9 -87 14 -89 11 -2 -2 -14 0
-27 5 -12 5 -56 11 -96 15 -41 3 -92 9 -114 11 -47 6 -561 14 -567 9z m537
-939 c22 -3 58 -8 80 -10 22 -3 60 -8 85 -12 25 -4 55 -8 68 -8 12 -1 22 -4
22 -7 0 -3 6 -6 13 -6 57 -1 181 -33 372 -95 55 -18 103 -31 108 -30 4 1 7 -3
7 -8 0 -6 10 -10 23 -10 13 0 32 -7 43 -15 10 -8 24 -15 31 -15 7 0 56 -21
110 -47 54 -26 100 -47 103 -47 3 -1 26 -13 52 -29 26 -15 49 -27 51 -27 12 0
284 -174 297 -189 3 -4 18 -15 33 -24 16 -10 36 -25 45 -33 9 -8 64 -54 122
-103 100 -84 252 -231 295 -284 11 -14 36 -42 55 -64 19 -21 59 -70 87 -108
29 -39 56 -75 60 -80 41 -54 67 -92 108 -160 26 -44 53 -83 59 -87 6 -4 8 -8
4 -8 -4 0 5 -22 21 -49 36 -61 161 -319 161 -333 0 -3 8 -23 17 -44 9 -22 18
-42 19 -46 1 -5 3 -10 4 -13 1 -3 3 -8 4 -12 1 -5 18 -55 36 -113 35 -110 36
-111 44 -148 3 -13 7 -31 10 -40 3 -9 7 -28 10 -42 3 -14 7 -36 11 -50 9 -44
34 -194 41 -245 13 -112 15 -136 21 -287 4 -107 2 -158 -5 -158 -6 0 -12 4
-14 9 -5 14 -121 142 -207 228 -138 139 -259 246 -386 342 -44 33 -86 66 -93
72 -7 6 -72 50 -145 98 -148 98 -336 206 -472 270 -49 23 -98 47 -108 52 -35
19 -323 130 -377 145 -8 2 -53 16 -100 30 -97 30 -195 55 -360 89 -104 21
-141 27 -235 40 -16 2 -49 6 -73 9 -56 8 -130 14 -267 21 -60 4 -125 8 -143 9
-18 1 -35 -1 -38 -6 -3 -5 -10 -5 -16 -2 -12 8 -55 7 -218 -2 -63 -3 -130 -7
-147 -8 -18 0 -33 -3 -33 -6 0 -3 -17 -5 -38 -6 -42 -1 -133 -11 -177 -20 -16
-3 -39 -7 -50 -9 -11 -1 -36 -5 -55 -9 -19 -3 -46 -8 -60 -10 -14 -3 -36 -8
-50 -11 -14 -3 -36 -8 -50 -11 -14 -3 -33 -7 -42 -10 -9 -3 -26 -7 -37 -9 -12
-3 -29 -7 -40 -9 -35 -8 -166 -48 -225 -68 -32 -11 -66 -22 -75 -23 -9 -2 -17
-4 -18 -5 -2 -2 -6 -3 -10 -4 -5 -2 -19 -7 -33 -13 -14 -6 -68 -28 -120 -48
-212 -84 -478 -222 -680 -354 -90 -58 -288 -201 -330 -238 -67 -59 -81 -70
-121 -103 -55 -44 -331 -320 -385 -385 l-41 -49 2 115 c3 116 14 287 21 324 2
11 6 40 9 65 3 25 8 56 11 70 2 14 7 39 10 55 10 61 65 278 85 338 11 34 22
69 24 78 20 93 212 496 296 623 21 32 39 60 39 62 0 10 139 195 209 279 153
183 380 396 556 520 39 27 72 52 75 55 3 4 12 10 20 13 8 4 27 15 42 25 146
95 331 191 490 255 63 26 117 47 121 47 3 0 18 5 34 12 15 6 30 12 33 13 3 1
32 9 65 19 33 9 73 22 88 28 16 6 39 12 50 13 12 1 29 5 37 8 21 8 109 27 145
32 17 2 30 4 30 5 0 3 39 9 95 16 30 3 64 8 75 10 11 2 51 7 90 10 38 3 71 7
73 9 6 5 471 -3 517 -9z m-170 -2611 c83 -3 168 -8 190 -10 103 -13 196 -27
260 -40 39 -8 81 -17 95 -19 14 -2 59 -14 100 -26 41 -11 82 -23 90 -25 8 -2
26 -8 40 -13 14 -5 28 -10 32 -11 15 -3 94 -31 163 -57 11 -4 22 -8 25 -9 66
-21 329 -153 432 -217 46 -28 98 -60 116 -70 17 -11 32 -25 32 -31 0 -6 3 -8
6 -4 4 3 26 -8 49 -26 24 -18 55 -41 70 -51 14 -11 35 -27 45 -35 29 -25 101
-85 122 -101 53 -42 243 -237 328 -336 132 -154 317 -438 396 -605 16 -36 16
-38 -12 -95 -15 -33 -31 -61 -34 -64 -3 -3 -13 -21 -23 -40 -9 -19 -28 -53
-42 -75 -14 -22 -29 -49 -34 -60 -5 -12 -16 -27 -25 -34 -9 -7 -16 -18 -16
-23 0 -5 -15 -29 -32 -54 -57 -78 -117 -159 -128 -172 -7 -7 -35 -41 -63 -75
-28 -34 -80 -91 -114 -127 -35 -35 -63 -68 -63 -72 0 -4 -4 -8 -9 -8 -5 0 -31
-21 -58 -46 -101 -96 -1908 -1904 -1903 -1904 3 0 -2 -4 -10 -10 -8 -5 -47
-41 -87 -80 l-72 -72 -878 876 c-483 481 -984 980 -1113 1108 -129 129 -260
263 -291 299 -104 119 -119 137 -119 143 0 4 -9 17 -21 29 -17 19 -128 180
-166 242 -25 40 -92 162 -122 219 l-31 60 66 125 c36 69 70 128 75 129 5 2 9
8 9 14 0 13 143 225 181 267 8 9 22 26 30 38 80 115 338 373 494 495 33 26 68
54 77 62 9 8 27 20 40 27 13 6 27 18 31 25 4 8 12 14 17 14 5 0 38 19 72 42
120 80 134 88 145 88 6 0 13 4 15 8 2 6 253 135 268 138 3 0 16 5 30 11 14 6
48 20 75 30 28 11 59 23 70 28 11 4 25 9 30 11 6 1 37 12 70 24 33 12 68 24
78 26 21 5 36 9 112 30 33 9 69 18 80 20 11 2 31 6 45 9 154 33 309 53 470 61
63 3 117 7 118 9 2 2 9 2 15 0 7 -2 80 -6 162 -10z m2902 -3122 c-6 -155 -13
-254 -22 -303 -3 -14 -8 -47 -11 -75 -4 -27 -8 -53 -10 -56 -2 -4 -6 -24 -9
-45 -5 -38 -10 -67 -20 -101 -5 -21 -21 -86 -23 -93 -1 -8 -7 -28 -42 -140
-18 -58 -33 -111 -33 -117 0 -7 -4 -13 -9 -13 -4 0 -8 -6 -8 -14 0 -39 -156
-374 -224 -480 -20 -31 -36 -60 -36 -65 0 -5 -6 -16 -12 -23 -7 -7 -35 -47
-63 -88 -101 -153 -218 -293 -365 -439 -58 -57 -565 -562 -1126 -1123 l-1022
-1019 -613 611 c-338 336 -841 837 -1119 1114 -278 277 -527 529 -555 561 -27
32 -55 63 -60 69 -20 21 -157 209 -174 237 -9 16 -19 29 -23 29 -5 0 -8 6 -8
14 0 8 -6 21 -13 28 -17 16 -149 249 -151 266 -1 7 -8 18 -14 24 -7 7 -12 16
-12 21 0 5 -14 39 -31 76 -75 162 -131 326 -180 521 -6 25 -12 54 -15 65 -24
123 -26 134 -40 230 -3 28 -8 59 -10 70 -15 80 -25 405 -12 405 4 0 8 -3 8 -8
0 -13 140 -161 350 -368 113 -112 673 -669 1245 -1239 572 -570 1056 -1051
1075 -1070 19 -18 105 -104 190 -189 85 -86 158 -156 161 -156 3 0 563 558
1245 1241 681 682 1277 1277 1324 1322 165 160 395 393 429 435 18 23 36 42
39 42 2 0 2 -71 -1 -157z"/>
</g>
</svg>
